<mxfile host="app.diagrams.net" modified="2023-06-04T23:13:03.223Z" agent="Mozilla/5.0 (Windows NT 10.0; Win64; x64) AppleWebKit/537.36 (KHTML, like Gecko) Chrome/113.0.0.0 Safari/537.36" etag="jDFCXgM3EbmWZI4kAfci" version="21.3.7" type="device">
  <diagram name="Page-1" id="UuyDvWcDxmrU8RDs8Sex">
    <mxGraphModel dx="1290" dy="491" grid="1" gridSize="10" guides="1" tooltips="1" connect="1" arrows="1" fold="1" page="1" pageScale="1" pageWidth="850" pageHeight="1100" math="0" shadow="0">
      <root>
        <mxCell id="0" />
        <mxCell id="1" parent="0" />
        <mxCell id="pXa9mTPv3OP1PPwLUfBU-1" value="P0" style="swimlane;whiteSpace=wrap;html=1;" vertex="1" parent="1">
          <mxGeometry x="350" y="190" width="160" height="130" as="geometry" />
        </mxCell>
        <mxCell id="pXa9mTPv3OP1PPwLUfBU-2" value="Kafić" style="text;html=1;strokeColor=none;fillColor=none;align=center;verticalAlign=middle;whiteSpace=wrap;rounded=0;" vertex="1" parent="pXa9mTPv3OP1PPwLUfBU-1">
          <mxGeometry x="50" y="50" width="60" height="30" as="geometry" />
        </mxCell>
        <mxCell id="pXa9mTPv3OP1PPwLUfBU-3" value="" style="rounded=0;whiteSpace=wrap;html=1;" vertex="1" parent="1">
          <mxGeometry x="680" y="190" width="120" height="130" as="geometry" />
        </mxCell>
        <mxCell id="pXa9mTPv3OP1PPwLUfBU-4" value="Šef/menadžer" style="text;html=1;strokeColor=none;fillColor=none;align=center;verticalAlign=middle;whiteSpace=wrap;rounded=0;" vertex="1" parent="1">
          <mxGeometry x="700" y="240" width="80" height="30" as="geometry" />
        </mxCell>
        <mxCell id="pXa9mTPv3OP1PPwLUfBU-5" value="" style="endArrow=classic;html=1;rounded=0;entryX=0;entryY=0.5;entryDx=0;entryDy=0;exitX=1;exitY=0.5;exitDx=0;exitDy=0;" edge="1" parent="1" source="pXa9mTPv3OP1PPwLUfBU-1" target="pXa9mTPv3OP1PPwLUfBU-3">
          <mxGeometry relative="1" as="geometry">
            <mxPoint x="510" y="240" as="sourcePoint" />
            <mxPoint x="470" y="290" as="targetPoint" />
          </mxGeometry>
        </mxCell>
        <mxCell id="pXa9mTPv3OP1PPwLUfBU-6" value="Izvještaj" style="edgeLabel;resizable=0;html=1;align=center;verticalAlign=middle;" connectable="0" vertex="1" parent="pXa9mTPv3OP1PPwLUfBU-5">
          <mxGeometry relative="1" as="geometry" />
        </mxCell>
        <mxCell id="pXa9mTPv3OP1PPwLUfBU-10" value="" style="endArrow=classic;html=1;rounded=0;exitX=0;exitY=1;exitDx=0;exitDy=0;entryX=1;entryY=1;entryDx=0;entryDy=0;" edge="1" parent="1" source="pXa9mTPv3OP1PPwLUfBU-3" target="pXa9mTPv3OP1PPwLUfBU-1">
          <mxGeometry relative="1" as="geometry">
            <mxPoint x="350" y="450" as="sourcePoint" />
            <mxPoint x="450" y="450" as="targetPoint" />
          </mxGeometry>
        </mxCell>
        <mxCell id="pXa9mTPv3OP1PPwLUfBU-11" value="Ažuriranje inventara" style="edgeLabel;resizable=0;html=1;align=center;verticalAlign=middle;" connectable="0" vertex="1" parent="pXa9mTPv3OP1PPwLUfBU-10">
          <mxGeometry relative="1" as="geometry" />
        </mxCell>
        <mxCell id="pXa9mTPv3OP1PPwLUfBU-12" value="" style="rounded=0;whiteSpace=wrap;html=1;" vertex="1" parent="1">
          <mxGeometry x="350" y="400" width="160" height="60" as="geometry" />
        </mxCell>
        <mxCell id="pXa9mTPv3OP1PPwLUfBU-13" value="Transakcija" style="text;html=1;strokeColor=none;fillColor=none;align=center;verticalAlign=middle;whiteSpace=wrap;rounded=0;" vertex="1" parent="1">
          <mxGeometry x="400" y="415" width="60" height="30" as="geometry" />
        </mxCell>
        <mxCell id="pXa9mTPv3OP1PPwLUfBU-14" value="" style="endArrow=classic;html=1;rounded=0;exitX=0;exitY=1;exitDx=0;exitDy=0;entryX=0;entryY=0;entryDx=0;entryDy=0;" edge="1" parent="1" source="pXa9mTPv3OP1PPwLUfBU-1" target="pXa9mTPv3OP1PPwLUfBU-12">
          <mxGeometry relative="1" as="geometry">
            <mxPoint x="370" y="290" as="sourcePoint" />
            <mxPoint x="470" y="290" as="targetPoint" />
          </mxGeometry>
        </mxCell>
        <mxCell id="pXa9mTPv3OP1PPwLUfBU-15" value="Potvrda uplate" style="edgeLabel;resizable=0;html=1;align=center;verticalAlign=middle;" connectable="0" vertex="1" parent="pXa9mTPv3OP1PPwLUfBU-14">
          <mxGeometry relative="1" as="geometry" />
        </mxCell>
        <mxCell id="pXa9mTPv3OP1PPwLUfBU-16" value="" style="endArrow=classic;html=1;rounded=0;entryX=1;entryY=1;entryDx=0;entryDy=0;exitX=1;exitY=0;exitDx=0;exitDy=0;" edge="1" parent="1" source="pXa9mTPv3OP1PPwLUfBU-12" target="pXa9mTPv3OP1PPwLUfBU-1">
          <mxGeometry relative="1" as="geometry">
            <mxPoint x="510" y="390" as="sourcePoint" />
            <mxPoint x="470" y="290" as="targetPoint" />
          </mxGeometry>
        </mxCell>
        <mxCell id="pXa9mTPv3OP1PPwLUfBU-17" value="Informacije plačanja" style="edgeLabel;resizable=0;html=1;align=center;verticalAlign=middle;" connectable="0" vertex="1" parent="pXa9mTPv3OP1PPwLUfBU-16">
          <mxGeometry relative="1" as="geometry" />
        </mxCell>
        <mxCell id="pXa9mTPv3OP1PPwLUfBU-18" value="" style="rounded=0;whiteSpace=wrap;html=1;" vertex="1" parent="1">
          <mxGeometry x="100" y="190" width="120" height="130" as="geometry" />
        </mxCell>
        <mxCell id="pXa9mTPv3OP1PPwLUfBU-19" value="Konobar/barista" style="text;html=1;strokeColor=none;fillColor=none;align=center;verticalAlign=middle;whiteSpace=wrap;rounded=0;" vertex="1" parent="1">
          <mxGeometry x="130" y="240" width="60" height="30" as="geometry" />
        </mxCell>
        <mxCell id="pXa9mTPv3OP1PPwLUfBU-20" value="" style="endArrow=classic;html=1;rounded=0;exitX=0;exitY=0;exitDx=0;exitDy=0;entryX=1;entryY=0;entryDx=0;entryDy=0;" edge="1" parent="1" source="pXa9mTPv3OP1PPwLUfBU-1" target="pXa9mTPv3OP1PPwLUfBU-18">
          <mxGeometry relative="1" as="geometry">
            <mxPoint x="370" y="290" as="sourcePoint" />
            <mxPoint x="470" y="290" as="targetPoint" />
          </mxGeometry>
        </mxCell>
        <mxCell id="pXa9mTPv3OP1PPwLUfBU-21" value="Potvrda kupca" style="edgeLabel;resizable=0;html=1;align=center;verticalAlign=middle;" connectable="0" vertex="1" parent="pXa9mTPv3OP1PPwLUfBU-20">
          <mxGeometry relative="1" as="geometry" />
        </mxCell>
        <mxCell id="pXa9mTPv3OP1PPwLUfBU-22" value="" style="endArrow=classic;html=1;rounded=0;exitX=1;exitY=1;exitDx=0;exitDy=0;entryX=0;entryY=1;entryDx=0;entryDy=0;" edge="1" parent="1" source="pXa9mTPv3OP1PPwLUfBU-18" target="pXa9mTPv3OP1PPwLUfBU-1">
          <mxGeometry relative="1" as="geometry">
            <mxPoint x="370" y="290" as="sourcePoint" />
            <mxPoint x="470" y="290" as="targetPoint" />
          </mxGeometry>
        </mxCell>
        <mxCell id="pXa9mTPv3OP1PPwLUfBU-23" value="Narudžba kupca" style="edgeLabel;resizable=0;html=1;align=center;verticalAlign=middle;" connectable="0" vertex="1" parent="pXa9mTPv3OP1PPwLUfBU-22">
          <mxGeometry relative="1" as="geometry" />
        </mxCell>
        <mxCell id="pXa9mTPv3OP1PPwLUfBU-24" value="" style="endArrow=classic;html=1;rounded=0;exitX=1;exitY=0;exitDx=0;exitDy=0;entryX=0;entryY=0;entryDx=0;entryDy=0;" edge="1" parent="1" source="pXa9mTPv3OP1PPwLUfBU-1" target="pXa9mTPv3OP1PPwLUfBU-3">
          <mxGeometry relative="1" as="geometry">
            <mxPoint x="370" y="290" as="sourcePoint" />
            <mxPoint x="470" y="290" as="targetPoint" />
          </mxGeometry>
        </mxCell>
        <mxCell id="pXa9mTPv3OP1PPwLUfBU-25" value="Upravljanje transakcijama" style="edgeLabel;resizable=0;html=1;align=center;verticalAlign=middle;" connectable="0" vertex="1" parent="pXa9mTPv3OP1PPwLUfBU-24">
          <mxGeometry relative="1" as="geometry" />
        </mxCell>
        <mxCell id="pXa9mTPv3OP1PPwLUfBU-26" value="" style="rounded=0;whiteSpace=wrap;html=1;" vertex="1" parent="1">
          <mxGeometry x="350" y="60" width="160" height="60" as="geometry" />
        </mxCell>
        <mxCell id="pXa9mTPv3OP1PPwLUfBU-27" value="Porezna uprava" style="text;html=1;strokeColor=none;fillColor=none;align=center;verticalAlign=middle;whiteSpace=wrap;rounded=0;" vertex="1" parent="1">
          <mxGeometry x="395" y="75" width="60" height="30" as="geometry" />
        </mxCell>
        <mxCell id="pXa9mTPv3OP1PPwLUfBU-30" value="" style="endArrow=classic;html=1;rounded=0;entryX=0.5;entryY=1;entryDx=0;entryDy=0;exitX=0.5;exitY=0;exitDx=0;exitDy=0;" edge="1" parent="1" source="pXa9mTPv3OP1PPwLUfBU-1" target="pXa9mTPv3OP1PPwLUfBU-26">
          <mxGeometry relative="1" as="geometry">
            <mxPoint x="370" y="290" as="sourcePoint" />
            <mxPoint x="470" y="290" as="targetPoint" />
          </mxGeometry>
        </mxCell>
        <mxCell id="pXa9mTPv3OP1PPwLUfBU-31" value="Provjera urednosti kafića" style="edgeLabel;resizable=0;html=1;align=center;verticalAlign=middle;" connectable="0" vertex="1" parent="pXa9mTPv3OP1PPwLUfBU-30">
          <mxGeometry relative="1" as="geometry" />
        </mxCell>
      </root>
    </mxGraphModel>
  </diagram>
</mxfile>
